<?xml version="1.0" encoding="utf-8"?>
<!-- Generator: Adobe Illustrator 18.1.0, SVG Export Plug-In . SVG Version: 6.00 Build 0)  -->
<svg version="1.0" id="Layer_1" xmlns="http://www.w3.org/2000/svg" xmlns:xlink="http://www.w3.org/1999/xlink" x="0px" y="0px"
	 viewBox="0 0 1000 1000" enable-background="new 0 0 1000 1000" xml:space="preserve">
<g>
	<path id="character" d="M411.4,590.8l-6.4,19.2l-6.4,19.2l-6.4,19.2l-6.4,19.2l-6.4,19.2l-6.4,19.2l-6.4,19.2l-6.4,19.2h-8.2h-8.2
		h-8.2h-8.2h-8.2h-8.2h-8.2h-8.2l20.8-61.2l20.8-61.2l20.8-61.2l20.8-61.2l20.8-61.2l20.8-61.2l20.8-61.2l20.8-61.2h9.5h9.5h9.5h9.5
		h9.5h9.5h9.5h9.5l20.9,61.2l20.9,61.2l20.9,61.2l20.9,61.2l20.9,61.2l20.9,61.2l20.9,61.2l20.9,61.2h-8.4h-8.4h-8.4H671h-8.4h-8.4
		h-8.4h-8.4l-6.5-19.2l-6.5-19.2l-6.5-19.2l-6.5-19.2l-6.5-19.2l-6.5-19.2l-6.5-19.2l-6.5-19.2h-21.7h-21.7h-21.7h-21.7h-21.7h-21.7
		h-21.7H411.4z M571.9,541.4l-6-17.6l-6-17.6l-6-17.6l-6-17.6l-6-17.6l-6-17.6l-6-17.6l-6-17.6c-1.4-4-2.7-7.9-3.9-11.8
		c-1.3-3.9-2.5-7.8-3.6-11.6c-1.2-3.8-2.3-7.6-3.4-11.4c-1.1-3.8-2.1-7.5-3.2-11.2s-2-7.4-3-11c-1-3.6-1.9-7.3-2.9-10.9
		c-0.9-3.6-1.9-7.2-2.8-10.8c-0.9-3.6-1.8-7.1-2.7-10.7h-0.2h-0.2H498h-0.2h-0.2h-0.2h-0.2h-0.2c-0.9,3.6-1.8,7.3-2.8,10.9
		c-0.9,3.7-1.9,7.3-2.8,11s-1.9,7.4-2.9,11c-1,3.7-2,7.4-3,11.1s-2.1,7.4-3.1,11.1c-1.1,3.7-2.1,7.4-3.2,11.1s-2.2,7.4-3.3,11.2
		s-2.3,7.4-3.5,11.2l-6,17.7l-6,17.7l-6,17.7l-6,17.7l-6,17.7l-6,17.7l-6,17.7l-6,17.7h18.4h18.4h18.4h18.4h18.4H535h18.4H571.9z"/>
</g>
</svg>
